<?xml version="1.0" encoding="utf-8"?>
<!-- Generator: Adobe Illustrator 16.0.0, SVG Export Plug-In . SVG Version: 6.00 Build 0)  -->
<svg version="1.2" baseProfile="tiny" id="Layer_1" xmlns="http://www.w3.org/2000/svg" xmlns:xlink="http://www.w3.org/1999/xlink"
	 x="0px" y="0px" width="1000px" height="1000px" viewBox="0 0 1000 1000" xml:space="preserve">
<path fill="#111111" d="M980,500c0,265.083-214.918,480-480,480C234.916,980,20,765.083,20,500C20,234.917,234.916,20,500,20
	C765.082,20,980,234.917,980,500z"/>
<path fill="#FFEB68" d="M967.5,500c0,258.173-209.327,467.5-467.5,467.5C241.821,967.5,32.5,758.173,32.5,500
	C32.5,241.822,241.821,32.5,500,32.5C758.173,32.5,967.5,241.822,967.5,500z"/>
<g>
	<path fill="#111111" d="M475.857,662.071c0,76.181-61.756,137.903-137.928,137.903C261.747,799.974,200,738.251,200,662.071
		V337.932c0-76.16,61.747-137.918,137.929-137.918c76.172,0,137.928,61.758,137.928,137.918V662.071z"/>
	<path fill="#111111" d="M800,337.947c0,76.168-61.742,137.933-137.948,137.933c-76.183,0-137.925-61.765-137.925-137.933
		c0-76.175,61.742-137.947,137.925-137.947C738.258,200,800,261.772,800,337.947"/>
	<path fill="#111111" d="M799.987,662.071c0,76.181-61.729,137.929-137.936,137.929c-76.184,0-137.926-61.748-137.926-137.929
		c0-76.177,61.742-137.929,137.926-137.929C738.258,524.142,799.987,585.894,799.987,662.071"/>
</g>
</svg>
